<?xml version="1.0" encoding="utf-8"?>
<!-- Generator: Adobe Illustrator 25.2.0, SVG Export Plug-In . SVG Version: 6.00 Build 0)  -->
<svg version="1.1" id="Layer_1" xmlns="http://www.w3.org/2000/svg" xmlns:xlink="http://www.w3.org/1999/xlink" x="0px" y="0px"
	 viewBox="0 0 611.9 401" style="enable-background:new 0 0 611.9 401;" xml:space="preserve">
<style type="text/css">
	.st0{fill:#EBEBEB;}
	.st1{fill:#DBDBDB;}
	.st2{fill:#FFFFFF;}
	.st3{fill:#C7C7C7;}
	.st4{fill:#0A021C;}
	.st5{fill:#794AFA;}
	.st6{opacity:0.1;}
	.st7{fill:none;stroke:#263238;stroke-miterlimit:10;}
	.st8{fill:none;stroke:#0A021C;stroke-miterlimit:10;stroke-dasharray:4,4;}
</style>
<g id="Background_Complete">
	<polygon class="st0" points="601.3,94.5 591.8,140.9 585.6,134.9 575.1,142.4 567.1,132.4 549.2,145.5 533.8,119.8 516.7,129.8 
		509.9,120.5 488.1,132.7 481.6,118.7 496.9,44.9 578.5,61.8 	"/>
	<polygon class="st1" points="578.5,61.8 601.3,94.5 573,88.7 	"/>
	<polygon class="st0" points="589.7,150.1 575.7,218.1 465.6,195.4 479.6,128 486.1,142 507.9,129.7 514.6,139.1 531.8,129.1 
		547.1,154.7 565.1,141.7 573.1,151.6 583.6,144.1 	"/>
	<polygon class="st0" points="432.2,142.2 320.1,149.1 311.1,5.1 394.4,0 425,25.6 	"/>
	<polygon class="st1" points="394.4,0 425,25.6 396.1,27.4 	"/>
	<path class="st1" d="M363.4,96.9l-0.4-3.2c-1.1-6.7,0.7-14.3,6.6-22.1c5.3-7,8.1-12,7.8-17.7c-0.4-6.4-4.6-10.4-12.5-10.1
		c-4.5,0.2-8.9,1.8-12.5,4.6l-3.5-7.7c4-3.2,11-5.7,17.6-6c14.4-0.8,21.5,7.7,22,17.3c0.5,8.5-3.9,14.9-9.6,22.4
		c-5.2,6.8-6.9,12.5-6.1,18.8l0.3,3.3L363.4,96.9z M361.6,114.6c-0.3-4.6,2.7-8.1,7.1-8.3s7.6,2.8,7.9,7.5c0.2,4.4-2.5,7.9-7.1,8.2
		C365,122.2,361.8,119,361.6,114.6L361.6,114.6z"/>
	<path class="st0" d="M82.9,72.4l-11.3-5.1L70,70.7c-0.5,1-1.5,1.7-2.6,1.7c-0.6,0-1.2,0.1-1.9,0.2c-1.1,0.2-2.2-0.3-2.9-1.2
		l-2.2-3.1l-10.1,7.2l2.2,3.1c0.6,0.9,0.7,2.1,0.2,3.1c-0.3,0.5-0.5,1.1-0.8,1.7c-0.4,1-1.3,1.8-2.4,1.9l-3.8,0.4L47.1,98l3.8-0.4
		c1.1-0.1,2.2,0.4,2.8,1.4c0.2,0.3,0.3,0.5,0.5,0.8s0.4,0.5,0.6,0.7c0.7,0.9,0.9,2,0.4,3.1l-1.6,3.5l11.3,5.1l1.6-3.5
		c0.5-1,1.5-1.7,2.6-1.7c0.6,0,1.2-0.1,1.8-0.2c1.1-0.2,2.2,0.3,2.9,1.2l2.2,3.1l10.1-7.2l-2.2-3.1c-0.6-0.9-0.7-2.1-0.2-3.1
		c0.3-0.5,0.5-1.1,0.8-1.7c0.4-1,1.3-1.8,2.4-1.9l3.8-0.4l-1.2-12.3l-3.8,0.4c-1.1,0.1-2.2-0.4-2.8-1.4c-0.2-0.3-0.3-0.5-0.5-0.8
		s-0.4-0.5-0.6-0.7c-0.7-0.9-0.9-2-0.4-3.1L82.9,72.4z M76.5,83.8c3.3,4.6,2.2,10.9-2.3,14.2s-10.9,2.2-14.2-2.3
		c-3.3-4.6-2.2-10.9,2.3-14.2c0,0,0,0,0,0C66.9,78.2,73.2,79.2,76.5,83.8z"/>
	<path class="st0" d="M592.8,236l-7.5,4.3l1.3,2.3c0.4,0.7,0.4,1.5-0.1,2.2c-0.2,0.4-0.5,0.7-0.7,1.1c-0.3,0.7-1,1.1-1.8,1.1h-2.6
		v8.7h2.7c0.8,0,1.5,0.4,1.8,1.1c0.2,0.4,0.4,0.8,0.7,1.1c0.4,0.6,0.5,1.5,0.1,2.2l-1.3,2.3l7.5,4.3l1.3-2.3c0.4-0.7,1.1-1.1,1.9-1
		h1.3c0.8-0.1,1.5,0.3,1.9,1l1.3,2.3l7.5-4.3l-1.3-2.3c-0.4-0.7-0.4-1.5,0.1-2.2c0.2-0.4,0.5-0.7,0.7-1.1c0.3-0.7,1-1.1,1.8-1.1h2.7
		v-8.7h-2.7c-0.8,0-1.5-0.4-1.8-1.1c-0.2-0.4-0.4-0.8-0.7-1.1c-0.4-0.6-0.5-1.5-0.1-2.2l1.3-2.3l-7.5-4.3l-1.3,2.3
		c-0.4,0.7-1.1,1.1-1.9,1h-0.6H596c-0.8,0.1-1.5-0.3-1.9-1L592.8,236z M596.7,244.3c3.9,0,7.1,3.2,7.1,7.1c0,3.9-3.2,7.1-7.1,7.1
		s-7.1-3.2-7.1-7.1c0,0,0,0,0,0C589.5,247.5,592.7,244.3,596.7,244.3C596.6,244.3,596.6,244.3,596.7,244.3L596.7,244.3z"/>
	<path class="st0" d="M105.7,35.4l-6.9,5.3l1.6,2.1c0.5,0.6,0.6,1.5,0.2,2.2c-0.2,0.4-0.4,0.8-0.5,1.2c-0.3,0.7-0.9,1.3-1.7,1.4
		l-2.6,0.3l1.1,8.6l2.6-0.3c0.8-0.1,1.6,0.2,2,0.9c0.2,0.3,0.5,0.7,0.8,1c0.5,0.6,0.7,1.4,0.4,2.1l-1,2.5l8,3.3l1-2.5
		c0.3-0.7,1-1.2,1.8-1.2l0.6-0.1l0.6-0.1c0.8-0.1,1.5,0.1,2,0.8l1.6,2.1l6.9-5.3l-1.6-2.1c-0.5-0.6-0.6-1.5-0.2-2.2
		c0.2-0.4,0.4-0.8,0.5-1.2c0.3-0.7,0.9-1.3,1.7-1.4l2.6-0.3l-1.1-8.6l-2.6,0.3c-0.8,0.1-1.6-0.2-2-0.9c-0.2-0.4-0.5-0.7-0.8-1
		c-0.5-0.6-0.6-1.4-0.3-2.1l1-2.5l-8-3.3l-1,2.5c-0.3,0.7-1,1.2-1.8,1.2l-0.6,0.1l-0.6,0c-0.8,0.1-1.5-0.1-2-0.8L105.7,35.4z
		 M110.6,43.2c3.9-0.5,7.5,2.3,8,6.1c0.5,3.9-2.3,7.5-6.1,8c-3.9,0.5-7.4-2.2-8-6.1C103.9,47.3,106.7,43.7,110.6,43.2
		C110.6,43.2,110.6,43.2,110.6,43.2z"/>
	<path class="st0" d="M54.2,261c0.4-9.7,0.2-19.3-0.4-29c-1.4-19.9-4.5-39.7-9.1-59.2c-2.5-10.9-5.7-21.7-8.9-32.4
		c-0.1-0.3-0.6-0.2-0.5,0.1c10.1,37.9,18.3,77,17.8,116.4c-0.2,11-1.4,21.9-2.5,32.8c0,0.3,0.4,0.4,0.5,0.1
		C53.1,280.4,53.8,270.6,54.2,261z"/>
	<path class="st0" d="M35.3,140.5c0,0-15.2,38.7-11.8,47.8s10.4,11,10.4,11s-9.3,13.3-2.8,25.8s21,11.9,22,26.1
		C53,251.2,53.8,192,35.3,140.5z"/>
	<path class="st2" d="M51.4,226.8c0-0.1,0-0.1,0-0.2c-2-26.4-7-52.5-14.8-77.9c0-0.1-0.2-0.1-0.1,0c3,11.3,5.7,22.7,8,34.1
		c-2-1.9-4.6-3.3-7.3-4.1c0,0-0.1,0.1,0,0.1c2.9,1.1,5.4,2.8,7.5,5c0.4,2.2,0.9,4.5,1.3,6.7c-3.4-3.8-8.1-5.7-12.9-7.5
		c0,0,0,0,0,0.1c0,0,0,0,0,0c4.9,2,9.8,4.6,13.2,8.8c1.2,6.4,2.2,12.9,3.1,19.3c-2.5-2.6-5.6-4.4-9.1-5.2c-0.1,0-0.2,0.1-0.1,0.2
		c3.6,1,6.7,3.1,9.2,5.9h0.1c0.3,2.3,0.6,4.5,0.9,6.8c-1.9-1.6-4.1-2.9-6.4-3.8c-0.1,0-0.1,0.1,0,0.1c2.4,1,4.5,2.5,6.4,4.2
		c0,0,0.1,0,0.1,0c0.2,2.2,0.5,4.3,0.7,6.5c-3.4-4.2-7.9-7.3-12.9-9.2c0,0-0.1,0-0.1,0.1c0,0,0,0.1,0.1,0.1l0,0
		c5,2.2,9.3,5.6,12.7,9.8c0.1,0.1,0.2,0.1,0.3,0.1c0.3,3.3,0.6,6.7,0.9,10c0,0,0.1,0,0.1,0C51.9,233.6,51.7,230.2,51.4,226.8z"/>
	<path class="st2" d="M39.1,175c-2.8-1.7-5.9-2.7-9.2-2.9c0,0-0.1,0-0.1,0.1c0,0,0,0.1,0.1,0.1c3.1,0.6,6.2,1.6,9.1,3
		C39.1,175.3,39.2,175.1,39.1,175z"/>
	<path class="st2" d="M41,215.9c-2.1-1.2-4.5-2-6.9-2.4c-0.1,0-0.1,0.1,0,0.1c2.4,0.5,4.7,1.3,6.8,2.4C41,216.2,41.1,216,41,215.9z"
		/>
	<path class="st0" d="M94.3,188.9c-6.4,4.5-12.4,9.6-17.6,15.4c-5.4,6.1-9.6,13.3-12.4,21c-5.8,16.1-8.9,33.1-9.2,50.2
		c-0.2,9.5,0.7,19,2.7,28.2c0,0.1,0.2,0.2,0.3,0.2c0.1,0,0.2-0.2,0.2-0.3c-2.5-16.4-2.4-33,0.3-49.4c2.6-16,6.7-33.4,16.9-46.4
		c5.5-7.1,12.4-12.7,19.3-18.4C95.1,189.2,94.7,188.7,94.3,188.9z"/>
	<path class="st0" d="M57.3,264c3.7-5.9,8-11.4,12.9-16.4c7.6-7.6,14.1-13,15.1-18.1s-7.6-8.8-7.6-8.8s10.6,1.9,13.4-2.5
		s4.3-30.1,4.3-30.1S76.1,201.8,67.1,221S57.3,264,57.3,264z"/>
	<path class="st2" d="M88.6,194.7c-8.1,7.9-16.2,16.4-21,26.8c-1.6,3.6-3,7.3-4.2,11.1l0,0c-0.2,0.8-0.5,1.5-0.7,2.3
		c0,0,0,0.1,0,0.1c-2.3,7.8-4.1,15.7-5.5,23.7c0,0,0.1,0.1,0.1,0c0.8-4,1.7-8,2.8-12.1c0,0,0.1,0,0.1,0c1.6-0.7,3.3-1.1,5-1.3
		c0.1,0,0.1-0.2,0-0.2c-1.7,0.1-3.4,0.4-5,0.9c0.9-3.6,1.9-7.3,3.1-10.8c3.7-0.9,7.6-1.4,11.4-1.5 M74.6,233.6
		c-3.8-0.2-7.5,0.1-11.2,1c0.2-0.6,0.4-1.2,0.6-1.8c2.5-0.6,5-1,7.6-1.3v-0.1c-2.5,0-5,0.4-7.4,0.9c1-3.1,2.2-6.1,3.4-9.1
		c1-2.4,2.3-4.8,3.6-7c2-0.5,4.1-0.9,6.1-1.1V215c-1.9-0.1-3.9,0-5.8,0.6c1-1.6,2.1-3.2,3.2-4.8l0,0c4.3-1,8.7-1.8,13.1-1
		c0,0,0.1-0.1,0-0.1c0,0,0,0,0,0c-4.2-1.1-8.4-0.5-12.5,0.4c0.4-0.6,0.9-1.2,1.4-1.8c2.6-0.8,5.3-1.2,8-1.3 M84.8,206.9
		c-2.5-0.2-5.1,0-7.5,0.7c3.6-4.4,7.5-8.6,11.4-12.7c0.3-0.2,0.1-0.3-0.1-0.2L84.8,206.9z"/>
	<path class="st2" d="M88.4,212.2c-1.3-0.2-2.5-0.2-3.8-0.1c-0.1,0-0.1,0.3,0,0.3c1.3,0,2.5-0.1,3.8,0
		C88.4,212.3,88.4,212.3,88.4,212.2C88.4,212.2,88.4,212.2,88.4,212.2z"/>
	<path class="st2" d="M74.6,237.1c-2,0-4,0.4-5.9,1.2c0,0,0,0.1,0,0.1c2-0.5,3.9-0.7,5.9-1C74.7,237.3,74.7,237.2,74.6,237.1
		C74.6,237.1,74.6,237.1,74.6,237.1z"/>
	<path class="st2" d="M70.5,228.5c-0.8,0-1.7,0.1-2.5,0.2c0,0-0.1,0.1,0,0.1c0,0,0,0,0,0c0.8,0,1.7,0,2.5-0.1c0.1,0,0.1-0.1,0.1-0.1
		S70.5,228.5,70.5,228.5z"/>
	<path class="st0" d="M1,216.2c6.2,2.1,12.2,4.9,17.8,8.4c5.8,3.7,10.9,8.5,14.9,14.1c8.4,11.7,14.8,24.7,19.1,38.5
		c2.3,7.6,3.8,15.5,4.3,23.5c0,0.1-0.1,0.2-0.3,0.2c-0.1,0-0.2-0.1-0.2-0.2c-1.8-13.8-5.7-27.3-11.6-39.9
		c-5.8-12.4-13.2-25.5-24.4-33.7c-6.1-4.5-13-7.4-19.9-10.5C0.4,216.5,0.6,216,1,216.2z"/>
	<path class="st0" d="M48.3,268.4c-4.3-4-9.1-7.4-14.2-10.3c-7.9-4.4-14.4-7.3-16.4-11.2s4.2-8.9,4.2-8.9s-8.1,4-11.5,1
		S0,215.7,0,215.7s18.7,6.7,30.4,20.1S48.3,268.4,48.3,268.4z"/>
	<path class="st2" d="M47.3,264.2c-9.3-17.6-21.8-33.5-38.9-43.9l0,0c4.5,2.9,8.7,6.2,12.5,9.8c-3.5-0.2-7,0.5-10.1,2.1
		c0,0,0,0,0,0.1c0,0,0,0,0,0c3.3-1.2,6.8-1.8,10.3-1.8c0,0,0.1,0,0.1,0c0.6,0.6,1.2,1.2,1.8,1.8c-1.8,0.1-3.6,0.3-5.4,0.7v0.1
		c1.9-0.4,3.8-0.5,5.7-0.5c3.1,3.2,6.1,6.5,8.8,10c-1.3-0.2-2.5-0.1-3.8,0.3c0,0-0.1,0-0.1,0.1s0,0.1,0.1,0.1c1.3-0.2,2.7-0.2,4,0
		c0.5,0.6,1,1.3,1.5,2c-3.8-0.2-7.6,0.1-11.3,1.1c-0.1,0,0,0.1,0,0.1c3.9-0.8,7.8-1.1,11.7-0.9c0.5,0.6,0.9,1.3,1.4,1.9
		c-2.3-0.1-4.6,0.2-6.8,0.8c0,0-0.1,0.1,0,0.1c0,0,0,0,0,0c2.3-0.5,4.7-0.7,7-0.5c2,2.8,3.9,5.6,5.8,8.5c-1-0.2-2-0.1-3,0.2
		 M38.8,256.3c1.1-0.1,2.2,0,3.2,0.2c1.7,2.6,3.3,5.2,4.8,7.9c0.2,0.3,0.6,0.1,0.5-0.1L38.8,256.3z"/>
	<path class="st2" d="M32.8,249.6c-1.8-0.1-3.7,0.1-5.4,0.7c0,0,0,0.1,0,0.1c1.8-0.3,3.6-0.5,5.4-0.6
		C32.9,249.8,32.9,249.6,32.8,249.6z"/>
	<path class="st2" d="M16.4,228.2c-0.8-0.1-1.7,0-2.5,0.1c-0.1,0-0.1,0.2,0,0.1c0.8-0.1,1.6-0.1,2.5-0.1c0.1,0,0.1,0,0.1-0.1
		C16.5,228.2,16.5,228.2,16.4,228.2z"/>
	<polygon class="st1" points="72.4,326.5 30.2,326.5 36.2,282.3 37.8,271 64.9,271 66.4,282.3 	"/>
	<polygon class="st3" points="66.4,282.3 36.2,282.3 37.8,271 64.9,271 	"/>
	<rect x="33.9" y="267.1" class="st1" width="34.9" height="9.6"/>
</g>
<g id="Floor">
	<polygon class="st4" points="3.3,326.5 79.3,326.2 155.4,326.1 307.4,326 459.4,326.1 535.4,326.2 611.4,326.5 535.4,326.7 
		459.4,326.8 307.4,326.9 155.4,326.8 79.3,326.7 	"/>
</g>
<g id="Shadow">
	<ellipse class="st0" cx="309.4" cy="369.6" rx="286.7" ry="31.4"/>
</g>
<g id="Folder">
	<polygon class="st5" points="510.7,376.3 206,376.3 250.1,126.5 554.8,126.5 	"/>
	<polygon class="st5" points="354.4,100.6 254.6,100.6 250.1,126.5 356.8,126.5 	"/>
	<g class="st6">
		<polygon points="510.7,376.3 206,376.3 250.1,126.5 554.8,126.5 		"/>
		<polygon points="354.4,100.6 254.6,100.6 250.1,126.5 356.8,126.5 		"/>
	</g>
	<path class="st4" d="M243.9,111.2c-0.7-2.9-0.7-5.8,0-8.7C244.5,105.3,244.5,108.3,243.9,111.2z"/>
	<path class="st4" d="M235,113.7c-1-1.1-1.9-2.2-2.6-3.5c-0.7-1.3-1.3-2.6-1.8-4c1,1,1.9,2.2,2.6,3.5C234,111,234.6,112.3,235,113.7
		z"/>
	<path class="st4" d="M228.6,120.4c-2.8-0.9-5.4-2.3-7.5-4.4c1.4,0.4,2.7,1,4,1.7C226.4,118.5,227.6,119.3,228.6,120.4z"/>
	<path class="st4" d="M226.4,129.3c-2.9,0.7-5.8,0.7-8.7,0C220.5,128.7,223.5,128.7,226.4,129.3z"/>
	<path class="st4" d="M229,138.2c-1.1,1-2.2,1.9-3.5,2.6c-1.3,0.7-2.6,1.3-4,1.7c1.1-1,2.2-1.9,3.5-2.6
		C226.2,139.2,227.6,138.6,229,138.2z"/>
	<path class="st4" d="M235.6,144.6c-0.9,2.8-2.3,5.4-4.4,7.5c0.4-1.4,1-2.7,1.8-4C233.7,146.8,234.6,145.6,235.6,144.6z"/>
	<path class="st4" d="M244.6,146.8c0.3,1.4,0.5,2.9,0.5,4.4c0,1.5-0.1,2.9-0.5,4.4c-0.4-1.4-0.5-2.9-0.5-4.4
		C244.1,149.7,244.2,148.2,244.6,146.8z"/>
	<path class="st4" d="M253.4,144.3c1,1.1,1.9,2.2,2.6,3.5c0.8,1.3,1.3,2.6,1.7,4C255.8,149.6,254.3,147.1,253.4,144.3L253.4,144.3z"
		/>
	<path class="st4" d="M259.8,137.6c1.4,0.4,2.7,1,4,1.7c1.3,0.7,2.5,1.6,3.5,2.6c-1.4-0.4-2.7-1-4-1.7
		C262.1,139.5,260.9,138.6,259.8,137.6z"/>
	<path class="st4" d="M262,128.6c2.9-0.7,5.8-0.7,8.7,0C267.9,129.3,264.9,129.3,262,128.6z"/>
	<path class="st4" d="M259.5,119.7c1.1-1,2.2-1.9,3.5-2.6c1.2-0.8,2.6-1.3,4-1.8C264.9,117.4,262.3,118.9,259.5,119.7L259.5,119.7z"
		/>
	<path class="st4" d="M252.8,113.4c0.4-1.4,1-2.7,1.7-4c0.7-1.3,1.6-2.5,2.6-3.5c-0.4,1.4-1,2.7-1.7,4
		C254.7,111.1,253.8,112.3,252.8,113.4z"/>
	<polygon class="st5" points="510.2,376.3 204.9,376.3 161.6,135.5 466.9,135.5 	"/>
	<circle class="st4" cx="267.4" cy="270" r="12.7"/>
	<circle class="st4" cx="367.7" cy="270" r="12.7"/>
	<path class="st4" d="M335.8,284.8l-0.7-1.3c-0.1-0.1-6.6-12.2-19.8-12.2c-12,0-15,11.4-15.1,11.9l-0.4,1.5l-2.9-0.7l0.4-1.5
		c0-0.1,3.6-14.2,18-14.2c15,0,22.2,13.3,22.5,13.9l0.7,1.3L335.8,284.8z"/>
</g>
<g id="Fly">
	<path class="st7" d="M490,268.6c0.7-0.1,1.3-0.3,1.9-0.5"/>
	<path class="st8" d="M495.8,267c15.3-5.2,28.1-17.2,29.3-31.3c2.7-31-35.1-48.1-31.2-83.9c3.7-34.2,39.6-36.6,53.9-31.9
		c15.9,5.2,10.4,20.5-3.9,18.5c-24.9-3.4-40.6-30.5-28.7-61.2c8.8-23,30.9-31.6,39.8-34.3"/>
	<path class="st7" d="M556.9,42.4c1.2-0.3,1.9-0.4,1.9-0.4"/>
</g>
<g id="Speech_Bubble">
	<path class="st2" d="M193.9,39.6c1.4,13.7,13.7,23.6,27.4,22.2c5.3-0.6,10.3-2.8,14.3-6.4l12.5,1.8l-6.2-10.8
		c1.6-3.8,2.1-7.9,1.7-12c-1.7-13.7-14.1-23.4-27.8-21.7C202.4,14.4,192.7,26.3,193.9,39.6L193.9,39.6z"/>
	<path class="st4" d="M201.4,19c2.7-2.7,6-4.7,9.6-5.9c7.4-2.4,15.4-1.3,21.9,3c3.2,2.2,5.9,5,7.8,8.3c3.9,6.8,4.5,15,1.5,22.2v-0.4
		l6.2,10.8l0.5,0.8l-0.9-0.1l-12.5-1.9l0.3-0.1c-3.5,3.1-7.7,5.2-12.3,6.1c-1.1,0.2-2.3,0.3-3.5,0.4c-1.2,0.1-2.3,0-3.5-0.1
		c-2.3-0.2-4.6-0.8-6.7-1.6c-2.1-0.8-4.2-2-6-3.3c-0.9-0.7-1.8-1.4-2.6-2.2c-0.8-0.8-1.6-1.7-2.3-2.6
		C191.2,42.2,192.3,27.9,201.4,19z M199,52.2c1.4,1.8,3,3.4,4.9,4.8c1.8,1.4,3.9,2.5,6,3.2c2.1,0.8,4.4,1.3,6.6,1.5
		c1.1,0.1,2.3,0.1,3.4,0c1.1,0,2.3-0.2,3.4-0.4c4.5-0.9,8.6-3,11.9-6.2l0.1-0.1h0.2l12.5,1.8l-0.5,0.7l-6.3-10.8l-0.1-0.2l0.1-0.2
		c1.4-3.4,2-7.2,1.8-10.9c-0.2-3.7-1.3-7.3-3.2-10.5c-1.9-3.2-4.4-6-7.5-8.1c-3.1-2.1-6.6-3.5-10.3-4.1c-3.7-0.6-7.5-0.3-11.1,0.8
		c-13,4-20.2,17.8-16.2,30.8C195.8,47.1,197.2,49.8,199,52.2L199,52.2z"/>
	<path class="st5" d="M228.4,51.2c-1.4,0-2.6-1.1-2.6-2.6c0-1.4,1.1-2.6,2.6-2.6s2.6,1.1,2.6,2.6C230.9,50,229.8,51.2,228.4,51.2
		L228.4,51.2z M227,42.7l-0.6-19.8h4l-0.6,19.8H227z"/>
	<path class="st5" d="M218.9,51.2c-1.4,0.1-2.6-1-2.7-2.4c-0.1-1.4,1-2.6,2.4-2.7s2.6,1,2.7,2.4c0,0,0,0.1,0,0.1
		c0.1,1.3-0.9,2.5-2.2,2.6C219,51.2,219,51.2,218.9,51.2z M217.5,42.7l-0.6-19.8h4l-0.6,19.8H217.5z"/>
	<path class="st5" d="M209.4,51.2c-1.4,0-2.6-1.1-2.6-2.6c0-1.4,1.1-2.6,2.6-2.6s2.6,1.1,2.6,2.6C211.9,50,210.8,51.2,209.4,51.2
		L209.4,51.2z M208,42.7l-0.6-19.8h4l-0.6,19.8H208z"/>
</g>
</svg>
